<svg height="14" viewBox="0 0 14 14" width="14" xmlns="http://www.w3.org/2000/svg"><path d="m8.41421356 7 5.29289324 5.2928932c.3905243.3905243.3905243 1.0236893 0 1.4142136s-1.0236893.3905243-1.4142136 0l-5.2928932-5.29289324-5.29289322 5.29289324c-.39052429.3905243-1.02368927.3905243-1.41421356 0-.39052429-.3905243-.39052429-1.0236893 0-1.4142136l5.29289322-5.2928932-5.29289322-5.29289322c-.39052429-.39052429-.39052429-1.02368927 0-1.41421356.39052429-.39052429 1.02368927-.39052429 1.41421356 0l5.29289322 5.29289322 5.2928932-5.29289322c.3905243-.39052429 1.0236893-.39052429 1.4142136 0s.3905243 1.02368927 0 1.41421356z" fill="#ff5252"/></svg>