<svg height="19" viewBox="0 0 14 19" width="14" xmlns="http://www.w3.org/2000/svg"><path d="m4.66666667 8.16666667h7.16666663c1.3807119 0 2.5 1.11928812 2.5 2.50000003v5.8333333c0 1.3807119-1.1192881 2.5-2.5 2.5h-8.66666663c-.78103257 0-1.47841298-.3581575-1.93686072-.9191921-.35199764-.4307641-.56313928-.9811286-.56313928-1.5808079v-5.8333333c0-1.32470718 1.03032808-2.40876832 2.33333343-2.49453261l.00000032-2.50462992c-.00258161-2.56876552 1.94174232-4.72155321 4.49750395-4.97971095s4.89132433 1.46231817 5.40249603 3.97971095c.0915849.45103277-.1998051.89091133-.6508379.98249625s-.8909113-.19980514-.9824963-.65083792c-.3407811-1.67826185-1.8978229-2.82524579-3.60166399-2.65314063s-3.00005704 1.60729695-2.99833554 3.3206448zm-1.5 1.66666666c-.46023729 0-.83333334.37309607-.83333334.83333337v5.8333333c0 .4602373.37309605.8333333.83333334.8333333h8.66666663c.4602373 0 .8333334-.373096.8333334-.8333333v-5.8333333c0-.4602373-.3730961-.83333337-.8333334-.83333337z" fill="#7f8c8d" transform="translate(-.5)"/></svg>