<svg height="24" viewBox="0 0 29 24" width="29" xmlns="http://www.w3.org/2000/svg"><path d="m994 941.84117c-1.065563.481907-2.212831.807801-3.41627.953413 1.228972-.748863 2.171978-1.936295 2.616247-3.350813-1.150673.693391-2.422199 1.197833-3.780537 1.468256-1.082585-1.177031-2.629864-1.912026-4.342255-1.912026-3.283501 0-5.947409 2.712893-5.947409 6.058505 0 .474973.051066.936078.153196 1.379848-4.944826-.253088-9.327933-2.662622-12.264189-6.332394-.512356.897941-.80513 1.939761-.80513 3.049187 0 2.100975 1.050243 3.955797 2.646886 5.042687-.973646-.029469-1.892822-.305092-2.69625-.755796v.074539c0 2.936512 2.051125 5.385916 4.774609 5.940629-.498738.142145-1.024711.213218-1.567706.213218-.38299 0-.757469-.036403-1.120033-.107476.757469 2.406067 2.953278 4.158613 5.55761 4.205417-2.035804 1.626002-4.602688 2.595016-7.389153 2.595016-.480014 0-.954922-.027735-1.419616-.083207 2.633269 1.716143 5.761871 2.719827 9.120268 2.719827 10.945002 0 16.928156-9.230769 16.928156-17.237703 0-.263489-.005107-.526977-.01532-.785266 1.162588-.854604 2.171979-1.920693 2.966896-3.135861" fill="#ddd" fill-rule="evenodd" transform="translate(-965 -939)"/></svg>