<svg fill="none" height="20" viewBox="0 0 20 20" width="20" xmlns="http://www.w3.org/2000/svg"><g stroke="#a2b4c8" stroke-linecap="round" stroke-linejoin="round" stroke-width="2"><path d="m16.6667 7.5h-7.50003c-.92048 0-1.66667.74619-1.66667 1.66667v7.50003c0 .9204.74619 1.6666 1.66667 1.6666h7.50003c.9204 0 1.6666-.7462 1.6666-1.6666v-7.50003c0-.92048-.7462-1.66667-1.6666-1.66667z"/><path d="m4.16797 12.5003h-.83333c-.44203 0-.86596-.1756-1.17852-.4881-.31256-.3126-.48815-.7365-.48815-1.1785v-7.50004c0-.44203.17559-.86595.48815-1.17851s.73649-.48816 1.17852-.48816h7.49996c.4421 0 .866.1756 1.1785.48816.3126.31256.4882.73648.4882 1.17851v.83333"/></g></svg>