<svg fill="none" height="20" viewBox="0 0 20 20" width="20" xmlns="http://www.w3.org/2000/svg"><g stroke="#fff" stroke-linecap="round" stroke-linejoin="round" stroke-width="2.2"><path d="m8.33398 10.8335c.35788.4784.81447.8743 1.3388 1.1608.52432.2864 1.10412.4568 1.70012.4994.5959.0427 1.1941-.0433 1.7539-.2521s1.0681-.5356 1.4905-.9581l2.5-2.50003c.759-.78585 1.179-1.83835 1.1695-2.93084s-.4477-2.13754-1.2202-2.91007c-.7726-.77254-1.8176-1.21074-2.9101-1.22023-1.0925-.0095-2.145.41048-2.9308 1.16947l-1.43338 1.425"/><path d="m11.6659 9.16653c-.3579-.47844-.8145-.87432-1.3388-1.16078-.52436-.28647-1.10417-.45682-1.70012-.4995s-1.19411.04331-1.75391.25213-1.06814.53559-1.49055.95815l-2.5 2.49997c-.75899.7859-1.17897 1.8384-1.16947 2.9309.00949 1.0925.4477 2.1375 1.22023 2.91.77253.7726 1.81759 1.2108 2.91007 1.2203 1.09249.0095 2.145-.4105 2.93084-1.1695l1.42501-1.425"/></g></svg>