<svg fill="none" height="15" viewBox="0 0 15 15" width="15" xmlns="http://www.w3.org/2000/svg"><rect fill="#929292" height="15" rx="7.5" width="15"/><path d="m4.94434 5.88135h1.2622c.04297-.65528.48877-1.07422 1.18164-1.07422.67676 0 1.12793.40283 1.12793.96142 0 .53174-.22558.81641-.8916 1.21924-.74121.43506-1.05273.91846-1.00439 1.72412l.00537.36524h1.24609v-.30615c0-.53174.19873-.80567.90235-1.21924.73046-.43506 1.13867-1.00977 1.13867-1.83155 0-1.18701-.98291-2.03564-2.45459-2.03564-1.59522 0-2.47071.92383-2.51367 2.19678zm2.36328 5.75785c.54785 0 .8916-.3384.8916-.854 0-.521-.34375-.85942-.8916-.85942-.53711 0-.8916.33842-.8916.85942 0 .5156.35449.854.8916.854z" fill="#fff"/></svg>