<svg height="28" viewBox="0 0 28 28" width="28" xmlns="http://www.w3.org/2000/svg"><path d="m980.000028 1067c3.802144 0 4.278905.01612 5.772154.08425 1.490137.06796 2.507847.30465 3.39835.65076.920624.35772 1.70137.83643 2.479727 1.61473.778301.77836 1.257007 1.5591 1.614787 2.47973.346054.8905.582739 1.90821.650705 3.39835.068133 1.49325.084249 1.97001.084249 5.77221 0 3.80214-.016116 4.2789-.084249 5.77215-.067966 1.49014-.304651 2.50785-.650705 3.39835-.35778.92063-.836486 1.70137-1.614787 2.47973-.778357.7783-1.559103 1.25701-2.479727 1.61479-.890503.34605-1.908213.58274-3.39835.6507-1.493249.06813-1.97001.08425-5.772154.08425-3.8022 0-4.278961-.01612-5.77221-.08425-1.490137-.06796-2.507847-.30465-3.39835-.6507-.920624-.35778-1.70137-.83649-2.479727-1.61479-.778301-.77836-1.257007-1.5591-1.614731-2.47973-.34611-.8905-.582795-1.90821-.650761-3.39835-.068133-1.49325-.084249-1.97001-.084249-5.77215 0-3.8022.016116-4.27896.084249-5.77221.067966-1.49014.304651-2.50785.650761-3.39835.357724-.92063.83643-1.70137 1.614731-2.47973.778357-.7783 1.559103-1.25701 2.479727-1.61473.890503-.34611 1.908213-.5828 3.39835-.65076 1.493249-.06813 1.97001-.08425 5.77221-.08425zm0 2.52252c-3.73818 0-4.180986.01428-5.657229.08163-1.364987.06225-2.106276.29032-2.599598.48205-.653484.25396-1.119854.55734-1.60973 1.04727-.489933.48988-.793306.95625-1.047275 1.60973-.191727.49332-.419799 1.23461-.482041 2.5996-.067355 1.47624-.081637 1.91905-.081637 5.65723 0 3.73812.014282 4.18093.081637 5.65717.062242 1.36499.290314 2.10628.482041 2.5996.253969.65348.557398 1.11985 1.047275 1.60973.489876.48993.956246.79331 1.60973 1.04727.493322.19173 1.234611.4198 2.599598.48205 1.476076.06735 1.918772.08163 5.657229.08163 3.738401 0 4.181152-.01428 5.657173-.08163 1.364987-.06225 2.106276-.29032 2.599598-.48205.653484-.25396 1.119854-.55734 1.60973-1.04727.489933-.48988.793306-.95625 1.047275-1.60973.191727-.49332.419799-1.23461.482041-2.5996.067355-1.47624.081637-1.91905.081637-5.65717 0-3.73818-.014282-4.18099-.081637-5.65723-.062242-1.36499-.290314-2.10628-.482041-2.5996-.253969-.65348-.557342-1.11985-1.047275-1.60973-.489876-.48993-.956246-.79331-1.60973-1.04727-.493322-.19173-1.234611-.4198-2.599598-.48205-1.476243-.06735-1.919049-.08163-5.657173-.08163zm0 4.2883c3.970475 0 7.189157 3.21868 7.189157 7.18921 0 3.97047-3.218682 7.18915-7.189157 7.18915-3.970531 0-7.189213-3.21868-7.189213-7.18915 0-3.97053 3.218682-7.18921 7.189213-7.18921zm0 11.85585c2.577313 0 4.666639-2.08933 4.666639-4.66664 0-2.57737-2.089326-4.6667-4.666639-4.6667-2.577369 0-4.666695 2.08933-4.666695 4.6667 0 2.57731 2.089326 4.66664 4.666695 4.66664zm9.153221-12.13989c0 .92785-.752182 1.67998-1.68003 1.67998-.927793 0-1.679975-.75213-1.679975-1.67998s.752182-1.68003 1.679975-1.68003c.927848 0 1.68003.75218 1.68003 1.68003z" fill="#ddd" fill-rule="evenodd" transform="translate(-966 -1067)"/></svg>