<svg height="28" viewBox="0 0 28 28" width="28" xmlns="http://www.w3.org/2000/svg"><path d="m980.955707 1355h-13.410322c-.853743 0-1.545385-.69207-1.545385-1.54548v-24.90915c0-.85362.691751-1.54537 1.545385-1.54537h24.909339c.853416 0 1.545276.69175 1.545276 1.54537v24.90915c0 .85352-.691968 1.54548-1.545276 1.54548h-7.135129v-10.84314h3.639542l.54497-4.22577h-4.184512v-2.69788c0-1.22346.339737-2.0572 2.094157-2.0572l2.23768-.00098v-3.77956c-.386999-.0515-1.715308-.16655-3.260693-.16655-3.226252 0-5.435032 1.9693-5.435032 5.58579v3.11638h-3.648886v4.22577h3.648886z" fill="#ddd" fill-rule="evenodd" transform="translate(-966 -1327)"/></svg>