<svg height="29" viewBox="0 0 29 29" width="29" xmlns="http://www.w3.org/2000/svg"><g style="stroke:#ff6b6b;stroke-width:2.464;fill:none;fill-rule:evenodd;stroke-linecap:round;stroke-linejoin:round" transform="translate(2 1)"><path d="m13.6125.55227273 10 4.90909091c.8495721.41448683 1.3869966 1.26538694 1.3875 2.19681818v11.69590908c-.0005034.9314313-.5379279 1.7823314-1.3875 2.1968182l-10 4.9090909c-.7042099.3459799-1.5332901.3459799-2.2375 0l-10-4.9090909c-.84875949-.4198881-1.38161417-1.2759786-1.37506087-2.2090909v-11.68363638c.00056428-.93143124.53798877-1.78233135 1.38756087-2.19681818l10-4.90909091c.7007908-.34189996 1.5242092-.34189996 2.225 0z"/><path d="m.4 6.33272727 12.1 5.94000003 12.1-5.94000003"/><path d="m12.5 26.7054545v-14.4327272"/></g></svg>